<svg xmlns="http://www.w3.org/2000/svg" height="50" width="50"><g class="nc-icon-wrapper js-transition-icon" data-effect="rotate" data-event="click"><g class="layer js-transition-icon__state" style="">
  <title>Layer 1</title>
  <g id="svg_1">
   <path d="m36.873156,24.881693c0.628174,-0.948794 0.941858,-1.993215 0.941858,-3.134004c0,-1.320392 -0.486552,-2.467242 -1.460465,-3.442367c-0.974384,-0.974115 -2.128103,-1.461071 -3.461021,-1.461071l-3.384048,0c0.61511,-1.268875 0.923204,-2.499566 0.923204,-3.691468c0,-1.499794 -0.224925,-2.691763 -0.67316,-3.576244c-0.448706,-0.884751 -1.102538,-1.535081 -1.961429,-1.951866c-0.859093,-0.416583 -1.826541,-0.624673 -2.903219,-0.624673c-0.654034,0 -1.230624,0.237114 -1.73051,0.711545c-0.551067,0.538272 -0.948457,1.230624 -1.191902,2.076653c-0.243579,0.845759 -0.439143,1.656635 -0.586422,2.432156c-0.147279,0.775453 -0.375033,1.323423 -0.68252,1.64384c-0.628242,0.679355 -1.313927,1.499928 -2.057393,2.461181c-1.2946,1.678993 -2.172751,2.672503 -2.633983,2.98026l-5.2681,0c-0.679355,0 -1.259447,0.240683 -1.74014,0.720973c-0.480492,0.480761 -0.720906,1.060785 -0.720906,1.740208l0,12.305095c0,0.679422 0.240145,1.259245 0.720906,1.740006c0.480963,0.480761 1.060785,0.72131 1.74014,0.72131l5.537,0c0.282032,0 1.166312,0.256307 2.653243,0.769056c1.576699,0.551269 2.964232,0.97095 4.162599,1.259447c1.198501,0.288497 2.413031,0.432813 3.643655,0.432813l1.787617,0l0.692554,0c1.807214,0 3.261955,-0.516251 4.364426,-1.548213c1.102066,-1.031962 1.647072,-2.438688 1.634412,-4.220379c0.769056,-0.987045 1.153516,-2.127833 1.153516,-3.422298c0,-0.28183 -0.018923,-0.557397 -0.057578,-0.826836c0.486889,-0.858487 0.73094,-1.781422 0.73094,-2.768466c-0.000202,-0.461501 -0.05778,-0.903944 -0.173273,-1.326655zm-24.033331,8.825151c-0.243512,0.243377 -0.531874,0.365537 -0.865154,0.365537c-0.333347,0 -0.621777,-0.122093 -0.865356,-0.365537c-0.243445,-0.24331 -0.365268,-0.531807 -0.365268,-0.865356c0,-0.333213 0.121554,-0.621508 0.365268,-0.865154c0.243849,-0.243579 0.532009,-0.365335 0.865356,-0.365335c0.33328,0 0.621642,0.121756 0.865154,0.365335c0.243579,0.243579 0.365403,0.531874 0.365403,0.865154c0,0.333549 -0.121823,0.622046 -0.365403,0.865356zm22.101668,-10.381648c-0.275634,0.58952 -0.618612,0.890744 -1.02873,0.903405c0.192197,0.217989 0.35254,0.522716 0.480761,0.913304c0.128086,0.39106 0.191725,0.746631 0.191725,1.06725c0,0.88401 -0.339206,1.64687 -1.018629,2.287571c0.230986,0.409984 0.34621,0.852426 0.34621,1.326453c0,0.474296 -0.111991,0.94536 -0.336445,1.413123c-0.22405,0.46736 -0.528709,0.803939 -0.913102,1.008931c0.064043,0.384461 0.095829,0.743466 0.095829,1.076678c0,2.140494 -1.230624,3.210774 -3.691939,3.210774l-2.325754,0c-1.679532,0 -3.871071,-0.467562 -6.575899,-1.403493c-0.064178,-0.02559 -0.249775,-0.093135 -0.557599,-0.201894s-0.535241,-0.188964 -0.682722,-0.240077c-0.147481,-0.051652 -0.371598,-0.125325 -0.673025,-0.221221c-0.301359,-0.096368 -0.544602,-0.166943 -0.730603,-0.211591c-0.185732,-0.044716 -0.39739,-0.086401 -0.634303,-0.124921c-0.237047,-0.038453 -0.439008,-0.057578 -0.605615,-0.057578l-0.615245,0l0,-12.304624l0.615245,0c0.205059,0 0.432543,-0.057848 0.68252,-0.172937c0.249909,-0.115426 0.506419,-0.28843 0.769123,-0.519214c0.262839,-0.230784 0.509382,-0.458268 0.740233,-0.682722c0.230784,-0.224252 0.487091,-0.506217 0.769191,-0.845759c0.281965,-0.339812 0.503051,-0.61208 0.663395,-0.817206c0.160141,-0.205059 0.361968,-0.467966 0.605547,-0.788383c0.243445,-0.32035 0.390993,-0.512681 0.442241,-0.576859c0.704878,-0.871484 1.198367,-1.454674 1.480331,-1.749636c0.525544,-0.551 0.906839,-1.25278 1.143954,-2.105206c0.237384,-0.852561 0.432813,-1.656905 0.586085,-2.413031c0.153676,-0.756193 0.397525,-1.301132 0.731209,-1.634412c1.23022,0 2.050793,0.30109 2.460844,0.903607c0.409984,0.602382 0.61511,1.531781 0.61511,2.787928c0,0.756193 -0.307892,1.784789 -0.923271,3.085719c-0.61511,1.301065 -0.922463,2.32333 -0.922463,3.066728l6.767624,0c0.641576,0 1.211701,0.24661 1.711385,0.740368c0.500088,0.493421 0.750402,1.066913 0.750402,1.720813c-0.000202,0.448571 -0.138053,0.967785 -0.41362,1.558112z" fill="black" id="svg_2"></path>
  </g>
  <g id="svg_3" style="vector-effect: non-scaling-stroke;"></g>
  <g id="svg_4" style="vector-effect: non-scaling-stroke;"></g>
  <g id="svg_5" style="vector-effect: non-scaling-stroke;"></g>
  <g id="svg_6" style="vector-effect: non-scaling-stroke;"></g>
  <g id="svg_7" style="vector-effect: non-scaling-stroke;"></g>
  <g id="svg_8" style="vector-effect: non-scaling-stroke;"></g>
  <g id="svg_9" style="vector-effect: non-scaling-stroke;"></g>
  <g id="svg_10" style="vector-effect: non-scaling-stroke;"></g>
  <g id="svg_11" style="vector-effect: non-scaling-stroke;"></g>
  <g id="svg_12" style="vector-effect: non-scaling-stroke;"></g>
  <g id="svg_13" style="vector-effect: non-scaling-stroke;"></g>
  <g id="svg_14" style="vector-effect: non-scaling-stroke;"></g>
  <g id="svg_15" style="vector-effect: non-scaling-stroke;"></g>
  <g id="svg_16" style="vector-effect: non-scaling-stroke;"></g>
  <g id="svg_17" style="vector-effect: non-scaling-stroke;"></g>
 </g><g class="layer js-transition-icon__state" style="display: none;" aria-hidden="true">
  <title>Layer 1</title>
  <path d="m24.899999,8.899994c-6.3,0 -11.879999,3.42 -14.759999,8.64l-4.14,-4.14l0,11.699999l11.699999,0l-5.04,-5.04c2.34,-4.5 6.84,-7.56 12.239999,-7.56c7.38,0 13.499999,6.12 13.499999,13.499999s-6.12,13.499999 -13.499999,13.499999c-5.94,0 -10.799999,-3.78 -12.779999,-9l-3.78,0c1.98,7.2 8.64,12.599999 16.559999,12.599999c9.539999,0 17.099999,-7.74 17.099999,-17.099999c0,-9.36 -7.74,-17.099999 -17.099999,-17.099999zm-2.7,9l0,9.18l8.46,5.04l1.44,-2.34l-7.2,-4.32l0,-7.56l-2.7,0z" fill="black" id="svg_1" opacity="0.9"></path>
 </g></g><script>!function(){"use strict";if(!window.requestAnimationFrame){var a=null;window.requestAnimationFrame=function(t,i){var e=(new Date).getTime();a||(a=e);var s=Math.max(0,16-(e-a)),n=window.setTimeout(function(){t(e+s)},s);return a=e+s,n}}function r(t,i,e,s){return 1&gt;(t/=s/2)?e/2*t*t*t*t+i:-e/2*((t-=2)*t*t*t-2)+i}function e(t){return t?[1,0]:[0,1]}function t(t){this.element=t,this.svg=function t(i){var e=i.parentNode;if("svg"!==e.tagName)e=t(e);return e;}(this.element),this.getSize(),this.states=this.element.querySelectorAll(".js-transition-icon__state"),this.time={start:null,total:200},this.status={interacted:!1,animating:!1},this.animation={effect:this.element.getAttribute("data-effect"),event:this.element.getAttribute("data-event")},this.init()}t.prototype.getSize=function(){var t=this.svg.getAttribute("viewBox");this.size=t?{width:t.split(" ")[2],height:t.split(" ")[3]}:this.svg.getBoundingClientRect()},t.prototype.init=function(){var t=this;this.svg.addEventListener(t.animation.event,function(){t.status.animating||(t.status.animating=!0,window.requestAnimationFrame(t.triggerAnimation.bind(t)))})},t.prototype.triggerAnimation=function(t){var i=this.getProgress(t);this.animateIcon(i),this.checkProgress(i)},t.prototype.getProgress=function(t){return this.time.start||(this.time.start=t),t-this.time.start},t.prototype.checkProgress=function(t){if(this.time.total&gt;t)window.requestAnimationFrame(this.triggerAnimation.bind(this));else{this.status={interacted:!this.status.interacted,animating:!1},this.time.start=null;var i=e(this.status.interacted);this.states[i[0]].removeAttribute("aria-hidden"),this.states[i[1]].setAttribute("aria-hidden","true")}},t.prototype.animateIcon=function(t){if(t&gt;this.time.total){t=this.time.total;}if(0&gt;t){t=0;};var i=e(this.status.interacted);this.states[i[0]].style.display=t&gt;this.time.total/2?"none":"block",this.states[i[1]].style.display=t&gt;this.time.total/2?"block":"none","scale"==this.animation.effect?this.scaleIcon(t,i[0],i[1]):this.rotateIcon(t,i[0],i[1])},t.prototype.scaleIcon=function(t,i,e){var s=r(Math.min(t,this.time.total/2),1,-.2,this.time.total/2).toFixed(2),n=r(Math.max(t-this.time.total/2,0),.2,-.2,this.time.total/2).toFixed(2);this.states[i].setAttribute("transform","translate("+this.size.width*(1-s)/2+" "+this.size.height*(1-s)/2+") scale("+s+")"),this.states[e].setAttribute("transform","translate("+this.size.width*n/2+" "+this.size.height*n/2+") scale("+(1-n)+")")},t.prototype.rotateIcon=function(t,i,e){var s=r(t,0,180,this.time.total).toFixed(2);this.states[i].setAttribute("transform","rotate(-"+s+" "+this.size.width/2+" "+this.size.height/2+")"),this.states[e].setAttribute("transform","rotate("+(180-s)+" "+this.size.width/2+" "+this.size.height/2+")")};var i=document.querySelectorAll(".js-transition-icon");if(i)for(var s=0;i.length&gt;s;s++)new t(i[s])}();</script></svg>